HIERARCHY
ROOT Hips
{
	OFFSET 0.000000 89.005402 0.000000
	CHANNELS 6 Xposition Yposition Zposition Xrotation Yrotation Zrotation
	JOINT Spine
	{
		OFFSET 0.116900 10.681000 0.373400
		CHANNELS 3 Xrotation Yrotation Zrotation
		JOINT Spine1
		{
			OFFSET 0.000000 13.840401 0.053500
			CHANNELS 3 Xrotation Yrotation Zrotation
			JOINT Spine2
			{
				OFFSET 0.000000 14.712700 -0.366200
				CHANNELS 3 Xrotation Yrotation Zrotation
				JOINT Neck
				{
					OFFSET 0.000000 35.415497 -3.314200
					CHANNELS 3 Xrotation Yrotation Zrotation
					JOINT Head
					{
						OFFSET 0.000000 16.899200 1.218300
						CHANNELS 3 Xrotation Yrotation Zrotation
						JOINT HeadTop_End
						{
							OFFSET 0.000000 22.206207 2.192500
							CHANNELS 3 Xrotation Yrotation Zrotation
							End Site
							{
								OFFSET 0.000000 22.314178 0.000000
							}
						}
					}
				}
				JOINT LeftShoulder
				{
					OFFSET 12.896400 26.716293 -4.548400
					CHANNELS 3 Xrotation Yrotation Zrotation
					JOINT LeftArm
					{
						OFFSET 19.027000 -4.857010 -1.718400
						CHANNELS 3 Xrotation Yrotation Zrotation
						JOINT LeftForeArm
						{
							OFFSET 24.179897 0.000000 0.000000
							CHANNELS 3 Xrotation Yrotation Zrotation
							JOINT LeftHand
							{
								OFFSET 27.156403 0.000000 0.000000
								CHANNELS 3 Xrotation Yrotation Zrotation
								JOINT LeftHandIndex1
								{
									OFFSET 16.441200 0.000000 0.000000
									CHANNELS 3 Xrotation Yrotation Zrotation
									JOINT LeftHandIndex2
									{
										OFFSET 4.821899 0.000000 0.000000
										CHANNELS 3 Xrotation Yrotation Zrotation
										JOINT LeftHandIndex3
										{
											OFFSET 6.386497 0.000000 0.000000
											CHANNELS 3 Xrotation Yrotation Zrotation
											JOINT LeftHandIndex4
											{
												OFFSET 5.188988 0.000000 0.000000
												CHANNELS 3 Xrotation Yrotation Zrotation
												End Site
												{
													OFFSET -0.178703 5.185913 0.000177
												}
											}
										}
									}
								}
								JOINT LeftHandThumb1
								{
									OFFSET 6.534897 -5.032593 5.900300
									CHANNELS 3 Xrotation Yrotation Zrotation
									JOINT LeftHandThumb2
									{
										OFFSET 3.818176 -2.204422 2.204423
										CHANNELS 3 Xrotation Yrotation Zrotation
										JOINT LeftHandThumb3
										{
											OFFSET 3.252098 -1.877594 1.877601
											CHANNELS 3 Xrotation Yrotation Zrotation
											JOINT LeftHandThumb4
											{
												OFFSET 5.251778 -3.032120 3.032117
												CHANNELS 3 Xrotation Yrotation Zrotation
												End Site
												{
													OFFSET 0.000023 6.780014 0.000000
												}
											}
										}
									}
								}
							}
						}
					}
				}
				JOINT RightShoulder
				{
					OFFSET -12.896300 26.716293 -4.548400
					CHANNELS 3 Xrotation Yrotation Zrotation
					JOINT RightArm
					{
						OFFSET -19.027000 -4.857010 -1.718400
						CHANNELS 3 Xrotation Yrotation Zrotation
						JOINT RightForeArm
						{
							OFFSET -24.179897 0.000000 0.000000
							CHANNELS 3 Xrotation Yrotation Zrotation
							JOINT RightHand
							{
								OFFSET -27.156403 0.000000 0.000000
								CHANNELS 3 Xrotation Yrotation Zrotation
								JOINT RightHandThumb1
								{
									OFFSET -6.591202 -4.852203 5.988100
									CHANNELS 3 Xrotation Yrotation Zrotation
									JOINT RightHandThumb2
									{
										OFFSET -3.818176 -2.204422 2.204423
										CHANNELS 3 Xrotation Yrotation Zrotation
										JOINT RightHandThumb3
										{
											OFFSET -3.252098 -1.877594 1.877601
											CHANNELS 3 Xrotation Yrotation Zrotation
											JOINT RightHandThumb4
											{
												OFFSET -5.251778 -3.032120 3.032117
												CHANNELS 3 Xrotation Yrotation Zrotation
												End Site
												{
													OFFSET -0.000023 6.780014 0.000000
												}
											}
										}
									}
								}
								JOINT RightHandIndex1
								{
									OFFSET -16.029404 0.000000 0.000000
									CHANNELS 3 Xrotation Yrotation Zrotation
									JOINT RightHandIndex2
									{
										OFFSET -5.213303 0.000000 0.000000
										CHANNELS 3 Xrotation Yrotation Zrotation
										JOINT RightHandIndex3
										{
											OFFSET -6.386528 0.000000 0.000000
											CHANNELS 3 Xrotation Yrotation Zrotation
											JOINT RightHandIndex4
											{
												OFFSET -5.189026 0.000000 0.000000
												CHANNELS 3 Xrotation Yrotation Zrotation
												End Site
												{
													OFFSET 0.236702 5.183624 0.001972
												}
											}
										}
									}
								}
							}
						}
					}
				}
			}
		}
	}
	JOINT LeftUpLeg
	{
		OFFSET 14.073000 -7.904099 -1.463000
		CHANNELS 3 Xrotation Yrotation Zrotation
		JOINT LeftLeg
		{
			OFFSET -0.109806 -34.073280 4.093200
			CHANNELS 3 Xrotation Yrotation Zrotation
			JOINT LeftFoot
			{
				OFFSET 0.109806 -29.899420 -6.319000
				CHANNELS 3 Xrotation Yrotation Zrotation
				JOINT LeftToeBase
				{
					OFFSET 1.551100 -14.988700 20.535801
					CHANNELS 3 Xrotation Yrotation Zrotation
					JOINT LeftToe_End
					{
						OFFSET 0.221200 0.570800 13.248301
						CHANNELS 3 Xrotation Yrotation Zrotation
						End Site
						{
							OFFSET 0.000000 13.262435 0.000000
						}
					}
				}
			}
		}
	}
	JOINT RightUpLeg
	{
		OFFSET -13.839300 -7.904099 -1.463000
		CHANNELS 3 Xrotation Yrotation Zrotation
		JOINT RightLeg
		{
			OFFSET 0.109694 -34.073219 4.093300
			CHANNELS 3 Xrotation Yrotation Zrotation
			JOINT RightFoot
			{
				OFFSET -0.109694 -29.899384 -6.319200
				CHANNELS 3 Xrotation Yrotation Zrotation
				JOINT RightToeBase
				{
					OFFSET -1.551100 -14.988700 20.535801
					CHANNELS 3 Xrotation Yrotation Zrotation
					JOINT RightToe_End
					{
						OFFSET -0.221200 0.570900 13.248299
						CHANNELS 3 Xrotation Yrotation Zrotation
						End Site
						{
							OFFSET 0.000000 13.262440 0.000000
						}
					}
				}
			}
		}
	}
}
MOTION
Frames: 4
Frame Time: 0.033333
0.202445 85.130562 1.369848 3.455265 1.438578 -1.109288 1.153823 0.105241 0.428749 -0.487024 0.031225 0.351397 -0.487128 0.040140 0.351727 -9.890928 -1.193809 2.832213 -8.892507 -1.010983 -3.505556 -0.000002 -0.000000 -0.000000 1.450766 -13.532394 -8.559689 0.091913 -18.047525 -66.824768 0.000000 -1.925927 -0.000017 5.276878 -15.363541 -5.109331 0.670815 4.955264 -26.274519 0.365847 2.039635 -20.336019 0.237277 1.651996 -16.346034 0.000001 -0.000000 -0.000001 -20.746471 -4.049664 0.316898 10.662274 38.443003 15.710603 2.133360 3.626973 13.772606 -0.000001 0.000000 0.000002 2.233017 14.359622 8.508864 0.744016 2.345939 67.749507 -0.000001 10.707828 0.000005 11.795624 2.874541 8.449506 -15.034730 -1.526065 -0.169092 12.354257 -30.174676 -13.137040 -0.678938 11.840573 -22.796409 0.000003 0.000000 0.000002 0.298675 -3.789348 18.855256 0.272004 -1.569820 19.658801 0.017643 -0.405456 4.983571 -0.000002 -0.000000 0.000001 -15.061774 10.039650 10.154989 24.521310 -2.586182 2.260806 -13.319128 1.567266 -6.784090 -0.432543 -0.000003 -0.000001 -0.000000 0.000001 0.000000 -11.458780 -7.139838 -5.210636 21.376351 -1.408360 -2.025283 -12.919733 -2.127219 7.479143 -0.000067 0.000001 -0.000004 0.000000 -0.000000 -0.000000 
0.220984 85.131485 1.329547 3.500150 1.417730 -1.112129 1.273837 0.105501 0.439503 -0.451282 0.031225 0.351397 -0.451393 0.040140 0.351727 -9.823695 -1.201091 2.847392 -8.731718 -1.030028 -3.476672 0.000001 -0.000000 -0.000000 1.397521 -13.640753 -8.776087 0.851323 -17.622450 -66.085762 0.000003 -3.226420 0.000036 4.746742 -14.790858 -4.943422 0.665176 4.943867 -26.149956 0.360737 2.025787 -20.191742 0.234305 1.641821 -16.242482 -0.000000 -0.000002 -0.000002 -20.754377 -4.053545 0.326180 10.694136 38.322699 15.526661 2.055147 3.771880 13.751525 -0.000001 -0.000001 0.000000 2.125790 14.501434 8.825486 0.339183 2.300822 67.281578 -0.000005 10.510469 0.000003 11.794230 2.880318 8.477210 -15.040731 -1.524653 -0.203799 12.383976 -29.766767 -13.106383 -0.678932 11.840569 -22.796434 0.000001 0.000002 0.000001 0.292996 -3.772652 18.638478 0.258224 -1.530743 19.149760 0.017640 -0.405453 4.983583 -0.000001 -0.000003 0.000001 -15.143014 10.010341 10.142794 24.537267 -2.537482 2.247548 -13.293165 1.561546 -6.767006 -0.432550 -0.000000 -0.000002 -0.000000 -0.000000 0.000000 -11.552567 -7.126796 -5.223806 21.372263 -1.395019 -2.025725 -12.867177 -2.125853 7.486836 -0.000073 0.000002 -0.000005 -0.000000 -0.000000 0.000000 
0.240359 85.129745 1.278789 3.553300 1.395815 -1.115828 1.412675 0.105731 0.444196 -0.408381 0.031225 0.351397 -0.408486 0.040141 0.351727 -9.718600 -1.229894 2.883480 -8.450571 -1.117992 -3.388823 -0.000001 -0.000000 -0.000000 1.344517 -13.749309 -8.992326 1.617845 -17.183581 -65.348074 0.000004 -4.562128 -0.000015 4.214053 -14.189698 -4.753769 0.660083 4.933509 -26.037016 0.355354 2.011095 -20.039066 0.231350 1.631652 -16.138945 0.000001 -0.000001 0.000000 -20.767566 -4.052353 0.351775 10.724351 38.190538 15.340741 1.980399 3.902242 13.738781 -0.000000 -0.000000 0.000002 2.002832 14.703191 9.094057 -0.070914 2.200275 66.842936 -0.000010 10.304789 0.000005 11.801048 2.874027 8.532733 -15.058023 -1.520559 -0.303456 12.414718 -29.343883 -13.071241 -0.678933 11.840564 -22.796441 0.000001 0.000000 0.000003 0.289459 -3.762146 18.502214 0.242771 -1.485474 18.562378 0.017648 -0.405464 4.983555 0.000001 0.000001 0.000003 -15.249405 9.972489 10.131636 24.569304 -2.482787 2.232396 -13.265521 1.556149 -6.748055 -0.432549 -0.000001 0.000002 -0.000000 0.000001 0.000000 -11.672859 -7.113851 -5.238425 21.383398 -1.379670 -2.025776 -12.811876 -2.123771 7.493366 0.000015 -0.000002 -0.000003 0.000000 0.000000 0.000000 
0.259278 85.128899 1.215463 3.597818 1.379596 -1.126428 1.586792 0.106014 0.451172 -0.354111 0.031225 0.351397 -0.354211 0.040141 0.351727 -9.559110 -1.278545 2.935692 -7.940827 -1.274951 -3.267126 -0.000000 -0.000000 -0.000000 1.291494 -13.871640 -9.225398 2.381311 -16.729864 -64.593919 -0.000002 -5.911492 0.000000 3.650571 -13.581477 -4.561210 0.655407 4.923963 -25.932910 0.349742 1.995652 -19.878454 0.228411 1.621459 -16.035447 0.000000 -0.000002 -0.000001 -20.788080 -4.048014 0.394838 10.749313 38.049874 15.165400 1.912538 4.022188 13.730307 -0.000000 -0.000000 -0.000001 1.874274 14.913817 9.312030 -0.508781 2.085070 66.434108 0.000003 10.088802 0.000010 11.839330 2.862583 8.585836 -15.085499 -1.513885 -0.461478 12.446481 -28.907348 -13.029695 -0.678941 11.840556 -22.796427 0.000002 0.000002 0.000002 0.287807 -3.757220 18.438333 0.226010 -1.434607 17.904287 0.017640 -0.405457 4.983586 -0.000001 -0.000000 -0.000001 -15.365281 9.932504 10.126929 24.609441 -2.436548 2.220845 -13.229883 1.552174 -6.727633 -0.432545 -0.000002 0.000001 0.000000 0.000000 0.000000 -11.789529 -7.102710 -5.250889 21.388322 -1.369117 -2.013354 -12.744381 -2.117743 7.492315 -0.000013 -0.000003 -0.000005 -0.000000 -0.000001 0.000000 
